<?xml version="1.0" encoding="UTF-8" standalone="no"?>
<svg version="1.0" id="Layer_1" xmlns="http://www.w3.org/2000/svg" xmlns:xlink="http://www.w3.org/1999/xlink" x="0px" y="0px"
	 width="87.594px" height="87.688px" viewBox="0 0 87.594 87.688" style="enable-background:new 0 0 87.594 87.688;"
	 xml:space="preserve">
<circle style="fill:none;stroke:#ffffff;stroke-width:7;" cx="43.814" cy="43.875" r="40.299"/>
<g>
	<path style="fill:#ffffff;" d="M43.814,14.072c-16.375,0-29.694,13.32-29.694,29.694c0,8.371,3.562,16.396,9.769,22.018l0.987-1.09l2.387-2.385
		c0.548-0.551,0.548-1.44-0.001-1.99s-1.438-0.548-1.988,0l-1.375,1.375c-4.09-4.551-6.521-10.394-6.846-16.521l1.946-0.001
		c0.777,0.001,1.405-0.63,1.405-1.406c0-0.777-0.628-1.406-1.405-1.406h-1.946c0.329-6.332,2.867-12.087,6.855-16.512l1.365,1.365
		c0.547,0.55,1.439,0.55,1.989,0c0.548-0.55,0.548-1.438,0-1.988l-1.367-1.367c4.426-3.986,10.182-6.524,16.512-6.854v1.947
		c0,0.776,0.631,1.407,1.407,1.407c0.777,0,1.406-0.631,1.406-1.407v-1.947c6.331,0.33,12.087,2.868,16.512,6.854l-1.365,1.366
		c-0.549,0.549-0.549,1.439,0,1.989c0.55,0.55,1.439,0.55,1.988,0l1.366-1.365c3.987,4.425,6.525,10.18,6.854,16.512H68.63
		c-0.776,0-1.406,0.629-1.406,1.406c0,0.776,0.63,1.406,1.406,1.406h1.946c-0.323,6.128-2.755,11.971-6.845,16.521l-1.375-1.374
		c-0.55-0.55-1.439-0.548-1.989,0c-0.549,0.55-0.549,1.439,0,1.987l2.4,2.401l0,0l0.974,1.075
		c6.207-5.623,9.769-13.646,9.769-22.017C73.51,27.393,60.188,14.072,43.814,14.072z"/>
	<path style="fill:#ffffff;" d="M58.781,57.293L47.769,45.852c0.303-0.566,0.476-1.211,0.476-1.896c0-2.226-1.804-4.026-4.027-4.026
		c-0.631,0-1.225,0.148-1.757,0.407l-3.645-3.787c-0.37-0.385-0.981-0.396-1.364-0.026l-0.225,0.217
		c-0.385,0.37-0.397,0.98-0.029,1.365l3.597,3.736c-0.381,0.613-0.605,1.337-0.605,2.114c0,2.225,1.804,4.026,4.028,4.026
		c0.723,0,1.397-0.192,1.983-0.524l10.965,11.391c0.369,0.385,0.981,0.397,1.364,0.027l0.224-0.217
		C59.138,58.289,59.149,57.679,58.781,57.293z"/>
	<path style="fill:#ffffff;" d="M35.964,62.556c0-0.672,0.545-1.217,1.216-1.217h13.592c0.672,0,1.217,0.545,1.217,1.217v4.255
		c0,0.671-0.545,1.216-1.217,1.216H37.18c-0.671,0-1.216-0.545-1.216-1.216V62.556z"/>
</g>
</svg>