<?xml version="1.0" encoding="UTF-8" standalone="no"?>
<svg version="1.0" id="Layer_1" xmlns="http://www.w3.org/2000/svg" xmlns:xlink="http://www.w3.org/1999/xlink" x="0px" y="0px" width="98px" height="98px" viewBox="0 0 87.625 87.688" style="enable-background:new 0 0 87.625 87.688;" xml:space="preserve">
  <circle style="fill:none;stroke:#ffffff;stroke-width:7;" cx="43.789" cy="43.87" r="40.299"/>
  <path style="fill:#ffffff;fill-rule:evenodd;clip-rule:evenodd;" d="M48.257,21.391H39.32c-0.496,0-0.901,0.406-0.901,0.902v4.113
	c0,0.496,0.405,0.902,0.901,0.902h8.937c0.497,0,0.902-0.406,0.902-0.902v-4.113C49.159,21.796,48.754,21.391,48.257,21.391
	L48.257,21.391z M51.353,17.462H36.227c-0.662,0-2.979,2.318-2.979,2.979v17.102c0,0.661,0.541,1.202,1.203,1.202h18.678
	c0.662,0,1.203-0.541,1.203-1.202V20.441C54.331,19.779,52.014,17.462,51.353,17.462L51.353,17.462z M38.356,40.047v3.673
	l1.181,1.588v21.813c0,0.96,0.86,1.375,1.746,1.746l0.512,0.215V48.068v-2.473c0-0.262,0.214-0.477,0.476-0.477h1.151
	c0,6.375,0,16.445,0,24.645l1.089,0.455c0.286,0.1,0.537,0.07,0.758-0.066c0.71-0.442,1.59-0.963,2.136-1.438
	c0.37-0.322,0.637-0.702,0.637-1.214V45.309l1.182-1.588v-3.673H38.356L38.356,40.047z"/>
</svg>