<?xml version="1.0" encoding="UTF-8" standalone="no"?>
<svg version="1.0" id="Layer_1" xmlns="http://www.w3.org/2000/svg" xmlns:xlink="http://www.w3.org/1999/xlink" x="0px" y="0px"
	 width="87.641px" height="87.632px" viewBox="0 0 87.641 87.632" enable-background="new 0 0 87.641 87.632" xml:space="preserve">
  
  <circle fill="none" stroke="#ffffff" stroke-width="7" cx="43.834" cy="43.829" r="40.298"/>
<path fill="#ffffff" d="M56.508,22.824v2.658l-8.088-1.834v-2.64l-4.586-1.029l-4.583,1.029v2.64l-8.089,1.834v-2.658l-7.338,1.648v14.179
	c0,13.077,8.261,24.286,20.01,29.024c11.75-4.738,20.012-15.947,20.012-29.024V24.473L56.508,22.824z M58.342,38.651
	c0,1.765-0.189,3.496-0.543,5.177H43.833v17.816C36.562,58,31.476,51.436,29.871,43.829h13.962V28.251l14.508,3.292V38.651z"/>
</svg>
