<?xml version="1.0" encoding="UTF-8" standalone="no"?>
<svg version="1.0" id="Layer_1" xmlns="http://www.w3.org/2000/svg" xmlns:xlink="http://www.w3.org/1999/xlink" x="0px" y="0px"
	 width="87.75px" height="87.688px" viewBox="0 0 87.75 87.688" style="enable-background:new 0 0 87.75 87.688;"
	 xml:space="preserve">
<circle style="fill:none;stroke:#ffffff;stroke-width:7;" cx="43.92" cy="43.875" r="40.299"/>
<g>
	<g>
		<path style="fill:#ffffff;" d="M67.301,42.598C66.66,30.681,57.113,21.133,45.197,20.492v-3.867h-2.555v3.867c-11.918,0.641-21.465,10.188-22.105,22.105
			H16.67v2.555h3.867c0.641,11.915,10.188,21.464,22.105,22.104v3.869h2.555v-3.869c11.916-0.64,21.463-10.188,22.104-22.104h3.869
			v-2.555H67.301z M42.643,24.762v2.998c-7.902,0.622-14.217,6.936-14.838,14.838h-2.998C25.438,33.049,33.094,25.394,42.643,24.762
			z M42.643,62.987c-9.549-0.633-17.205-8.286-17.836-17.835h2.998c0.621,7.902,6.936,14.216,14.838,14.838V62.987z M43.92,53.242
			c-0.707,0-1.277,0.571-1.277,1.277v2.916c-6.496-0.607-11.676-5.789-12.283-12.283h2.916c0.705,0,1.277-0.572,1.277-1.277
			c0-0.706-0.572-1.277-1.277-1.277h-2.916c0.607-6.495,5.787-11.676,12.283-12.283v2.916c0,0.705,0.57,1.277,1.277,1.277
			c0.705,0,1.277-0.572,1.277-1.277v-2.916c6.494,0.607,11.676,5.788,12.283,12.283h-2.916c-0.707,0-1.277,0.571-1.277,1.277
			c0,0.705,0.57,1.277,1.277,1.277h2.916c-0.607,6.494-5.789,11.676-12.283,12.283V54.52C45.197,53.813,44.625,53.242,43.92,53.242z
			 M45.197,62.987V59.99c7.902-0.622,14.215-6.936,14.838-14.838h2.996C62.398,54.701,54.746,62.354,45.197,62.987z M60.035,42.598
			C59.412,34.695,53.1,28.382,45.197,27.76v-2.998c9.549,0.632,17.201,8.287,17.834,17.836H60.035z"/>
	</g>
</g>
</svg>
